# xmcd
#
# Track frame offsets: 
#        150
#        34792
#        51887
#        71680
#        95455
#        113610
#        140077
#        159025
#        179355
#        194347
#        207427
#        231375
#        242390
#        256435
#        283130
#        298750
#
# Disc length: 4315 seconds
#
# Revision: 13
# Processed by: cddbd v1.5.2PL0 Copyright (c) Steve Scherf et al.
# Submitted via: ExactAudioCopy v0.99pb4
#
DISCID=ef10d910
DTITLE=Various Artist - The Celtic Circle DISC2
DYEAR=2003
DGENRE=Celtic
TTITLE0=Loreena McKennitt - The Mystic's Dream
TTITLE1=The Corrs - Runaway
TTITLE2=The Chieftains feat. Sinead O'Connor - Factory Girl
TTITLE3=Clannad - I Will Find You
TTITLE4=Marie Brennan - Eirigh Suas A Stoirin
TTITLE5=Howard Shore - The Fellowship Of The Ring Suite
TTITLE6=Phil Coulter feat. Sinead O'Connor - The Shores Of The Swilly
TTITLE7=Sarah McLachlan - Angel
TTITLE8=Nightnoise - The Rose Of Tralee
TTITLE9=Jeff Johnson and Brian Dunning - cuChulainn's Last Battle
TTITLE10=Within Temptasion - Our Farewell
TTITLE11=Karen Matheson - Evangeline
TTITLE12=Anuna - She Moved Through The Fair
TTITLE13=Willinam Coulter - Keening Of The Three Marys
TTITLE14=David Arkenstone - The Dragon's Breath
TTITLE15=Vangelis - 12 O'Clock
EXTD=YEAR: 2003
EXTT0=
EXTT1=
EXTT2=
EXTT3=
EXTT4=
EXTT5=
EXTT6=
EXTT7=
EXTT8=
EXTT9=
EXTT10=
EXTT11=
EXTT12=
EXTT13=
EXTT14=
EXTT15=
PLAYORDER=
